<svg width="40" height="40" viewBox="0 0 40 40" fill="none" xmlns="http://www.w3.org/2000/svg">
<g clip-path="url(#clip0_2_26)">
<path d="M20 40C16.0444 40 12.1776 38.827 8.8886 36.6294C5.59962 34.4317 3.03617 31.3082 1.52242 27.6536C0.00866562 23.9991 -0.387401 19.9778 0.384303 16.0982C1.15601 12.2186 3.06082 8.65489 5.85787 5.85784C8.65492 3.06079 12.2186 1.15598 16.0982 0.384273C19.9778 -0.387432 23.9992 0.0086351 27.6537 1.52239C31.3082 3.03614 34.4318 5.59959 36.6294 8.88857C38.827 12.1776 40 16.0444 40 20C39.9942 25.3025 37.8852 30.3862 34.1357 34.1357C30.3863 37.8852 25.3026 39.9942 20 40ZM20 1.24998C16.2916 1.24998 12.6665 2.34965 9.58307 4.40992C6.49965 6.4702 4.09641 9.39855 2.67727 12.8247C1.25812 16.2508 0.886812 20.0208 1.61028 23.6579C2.33376 27.2951 4.11952 30.636 6.74176 33.2582C9.36399 35.8805 12.7049 37.6662 16.3421 38.3897C19.9792 39.1132 23.7492 38.7419 27.1753 37.3227C30.6014 35.9036 33.5298 33.5003 35.5901 30.4169C37.6503 27.3335 38.75 23.7084 38.75 20C38.7442 15.0289 36.7669 10.2632 33.2519 6.74812C29.7368 3.23307 24.971 1.25577 20 1.24998Z" fill="white"/>
<path d="M27.026 13.3258L13.3258 27.026C13.2086 27.1432 13.0496 27.2091 12.8839 27.2091C12.7181 27.2091 12.5592 27.1432 12.4419 27.026C12.3247 26.9088 12.2589 26.7498 12.2589 26.5841C12.2589 26.4183 12.3247 26.2593 12.4419 26.1421L26.1421 12.4419C26.2593 12.3247 26.4183 12.2589 26.5841 12.2589C26.7498 12.2589 26.9088 12.3247 27.026 12.4419C27.1432 12.5592 27.2091 12.7181 27.2091 12.8839C27.2091 13.0496 27.1432 13.2086 27.026 13.3258Z" fill="white"/>
<path d="M26.1422 27.026L12.442 13.3258C12.3248 13.2086 12.2589 13.0496 12.2589 12.8839C12.2589 12.7181 12.3248 12.5592 12.442 12.4419C12.5592 12.3247 12.7182 12.2589 12.8839 12.2589C13.0497 12.2589 13.2086 12.3247 13.3259 12.4419L27.026 26.1421C27.1433 26.2593 27.2091 26.4183 27.2091 26.5841C27.2091 26.7498 27.1433 26.9088 27.026 27.026C26.9088 27.1432 26.7499 27.2091 26.5841 27.2091C26.4183 27.2091 26.2594 27.1432 26.1422 27.026Z" fill="white"/>
</g>
<defs>
<clipPath id="clip0_2_26">
<rect width="40" height="40" fill="white"/>
</clipPath>
</defs>
</svg>
